<svg aria-hidden="true" width="18" height="11" viewBox="0 0 18 11" fill="none" xmlns="http://www.w3.org/2000/svg">
<path d="M14.504 1.72707C14.504 0.899239 13.7538 0.221924 12.8368 0.221924H10.3361V1.72707H12.8368V3.72138L9.93593 6.99507H7.00167V3.23221H3.66728C1.82503 3.23221 0.332886 4.57932 0.332886 6.2425V8.50022H2.00008C2.00008 9.74949 3.1171 10.7579 4.50087 10.7579C5.88465 10.7579 7.00167 9.74949 7.00167 8.50022H10.7362L14.504 4.24819V1.72707ZM4.50087 9.25279C4.04239 9.25279 3.66728 8.91413 3.66728 8.50022H5.33447C5.33447 8.91413 4.95935 9.25279 4.50087 9.25279Z" fill="black"/>
<path d="M7.00168 0.974487H2.83368V2.47961H7.00168V0.974487Z" fill="black"/>
<path d="M14.504 6.24243C13.1203 6.24243 12.0032 7.25087 12.0032 8.50014C12.0032 9.7494 13.1203 10.7578 14.504 10.7578C15.8878 10.7578 17.0048 9.7494 17.0048 8.50014C17.0048 7.25087 15.8878 6.24243 14.504 6.24243ZM14.504 9.25271C14.0455 9.25271 13.6704 8.91405 13.6704 8.50014C13.6704 8.08622 14.0455 7.74757 14.504 7.74757C14.9625 7.74757 15.3376 8.08622 15.3376 8.50014C15.3376 8.91405 14.9625 9.25271 14.504 9.25271Z" fill="black"/>
</svg>
