<svg aria-hidden="true" width="35" height="25" viewBox="0 0 35 25" 
fill="none" xmlns="http://www.w3.org/2000/svg">
<path id="line-1" class="menuRotate1" d="M0 1.5C0 0.671573 0.671573 0 1.5 0H33.5C34.3284 0 35 0.671573 35 1.5C35 2.32843 34.3284 3 33.5 3H1.5C0.671574 3 0 2.32843 0 1.5Z" fill="black"/>
<path id="line-2" class="menuRotate1" class="menuRotate1a" d="M0 12.5C0 11.6716 0.671573 11 1.5 11H33.5C34.3284 11 35 11.6716 35 12.5C35 13.3284 34.3284 14 33.5 14H1.5C0.671574 14 0 13.3284 0 12.5Z" fill="black"/>
<path id="line-3" class="menuRotate2" class="menuRotate2a" d="M0 12.5C0 11.6716 0.671573 11 1.5 11H33.5C34.3284 11 35 11.6716 35 12.5C35 13.3284 34.3284 14 33.5 14H1.5C0.671574 14 0 13.3284 0 12.5Z" fill="black"/>
<path id="line-4" class="menuRotate2" d="M0 23.5C0 22.6716 0.671573 22 1.5 22H33.5C34.3284 22 35 22.6716 35 23.5C35 24.3284 34.3284 25 33.5 25H1.5C0.671574 25 0 24.3284 0 23.5Z" fill="black"/>
</svg>
