<svg aria-hidden="true" width="45" height="37" viewBox="0 0 45 37" fill="transparent" xmlns="http://www.w3.org/2000/svg">

<path id="line-1" class="translate-1" d="M5 7.5C5 6.67157 5.67157 6 6.5 6H38.5C39.3284 6 40 6.67157 40 7.5C40 8.32843 39.3284 9 38.5 9H6.5C5.67157 9 5 8.32843 5 7.5Z" fill="black"/>
<path id="line-2" class="rotate-2" d="M5 18.5C5 17.6716 5.67157 17 6.5 17H38.5C39.3284 17 40 17.6716 40 18.5C40 19.3284 39.3284 20 38.5 20H6.5C5.67157 20 5 19.3284 5 18.5Z" fill="black"/>
<path id="line-3" class="rotate-3" d="M5 18.5C5 17.6716 5.67157 17 6.5 17H38.5C39.3284 17 40 17.6716 40 18.5C40 19.3284 39.3284 20 38.5 20H6.5C5.67157 20 5 19.3284 5 18.5Z" fill="black"/>
<path id="line-4" class="translate-4" d="M5 29.5C5 28.6716 5.67157 28 6.5 28H38.5C39.3284 28 40 28.6716 40 29.5C40 30.3284 39.3284 31 38.5 31H6.5C5.67157 31 5 30.3284 5 29.5Z" fill="black"/>
</svg>
