<svg width="103" height="17" viewBox="0 0 103 17" fill="none" xmlns="http://www.w3.org/2000/svg">
<path d="M9.0332 0L11.0538 5.93617H17.5927L12.3026 9.60493L14.3233 15.5411L9.0332 11.8723L3.74314 15.5411L5.76376 9.60493L0.473695 5.93617H7.01258L9.0332 0Z" fill="#EE9972"/>
<path d="M30.0332 0L32.0538 5.93617H38.5927L33.3026 9.60493L35.3233 15.5411L30.0332 11.8723L24.7431 15.5411L26.7638 9.60493L21.4737 5.93617H28.0126L30.0332 0Z" fill="#EE9972"/>
<path d="M51.0332 0L53.0538 5.93617H59.5927L54.3026 9.60493L56.3233 15.5411L51.0332 11.8723L45.7431 15.5411L47.7638 9.60493L42.4737 5.93617H49.0126L51.0332 0Z" fill="#EE9972"/>
<path d="M72.0332 0L74.0538 5.93617H80.5927L75.3026 9.60493L77.3233 15.5411L72.0332 11.8723L66.7431 15.5411L68.7638 9.60493L63.4737 5.93617H70.0126L72.0332 0Z" fill="#EE9972"/>
<path d="M93.0332 0L95.0538 5.93617H101.593L96.3026 9.60493L98.3233 15.5411L93.0332 11.8723L87.7431 15.5411L89.7638 9.60493L84.4737 5.93617H91.0126L93.0332 0Z" fill="#EE9972"/>
</svg>
